# xmcd
#
# Track frame offsets:
#	150
#	12847
#	25981
#	38406
#	50397
#	63013
#	74604
#	86039
#	98282
#	110350
#	122969
#	134973
#	147637
#	158851
#	171824
#	184095
#	196007
#	208241
#	219962
#	230836
#	243025
#	256826
#	269425
#	281933
#	293368
#
# Disc length: 4093 seconds
# Revision: 1
# Processed by: cddbd v1.5.2PL0 Copyright (c) Steve Scherf et al.
# Submitted via: dBpowerAMP V12.0
#
DISCID=6f0ffb19
DTITLE=Bob Wills - Texas, Hollywood And Chicago 1940-1947, CD03 - CD04
DYEAR=2011
DGENRE=Country
TTITLE0=I'm Feelin' Bad
TTITLE1=White Cross On Okinawa
TTITLE2=This Is Southland
TTITLE3=Cotton Eyed Joe
TTITLE4=Staccato Waltz
TTITLE5=Punkin' Stomp
TTITLE6=Sugar Moon
TTITLE7=Rose Of Old Pawnee
TTITLE8=How Can It Be Wrong
TTITLE9=Brain Cloudy Blues
TTITLE10=Bob Wills Boogie
TTITLE11=There's A Big Rock In The Road
TTITLE12=I'm Gonna Be Boss From Now On
TTITLE13=Fat Boy Rag
TTITLE14=The Kind Of Love I Can't Forget
TTITLE15=The Devil Ain't Lazy
TTITLE16=A Sweet Kind Of Love
TTITLE17=Hometown Stomp
TTITLE18=Cowboy Stomp
TTITLE19=Misery
TTITLE20=Bob Wills Schottische
TTITLE21=Texarkana Baby
TTITLE22=Good Time Cakewalk
TTITLE23=Can't Get Enough Of Texas
TTITLE24=You're There
EXTD=
EXTT0=
EXTT1=
EXTT2=
EXTT3=
EXTT4=
EXTT5=
EXTT6=
EXTT7=
EXTT8=
EXTT9=
EXTT10=
EXTT11=
EXTT12=
EXTT13=
EXTT14=
EXTT15=
EXTT16=
EXTT17=
EXTT18=
EXTT19=
EXTT20=
EXTT21=
EXTT22=
EXTT23=
EXTT24=
PLAYORDER=
